<svg xmlns="http://www.w3.org/2000/svg" xmlns:xlink="http://www.w3.org/1999/xlink" clip-rule="evenodd"
    fill-rule="evenodd" stroke-linejoin="round" stroke-miterlimit="2" viewBox="0 0 975 26">
    <clipPath id="a">
        <path clip-rule="nonzero" d="m103.067 98.979h299.251v57.64h-299.251z" />
    </clipPath>
    <g clip-path="url(#a)" transform="matrix(3.26067 0 0 3.36335 -336.069 -360.428)">
        <path
            d="m110.166 112.954c.697.05 1.362.163 2.019.313.533.121 1.05.327 1.588.424.345.061.713-.007 1.072-.016 0-.059.001-.119.001-.177-.129-.016-.261-.02-.387-.048-.409-.092-.82-.18-1.222-.299-.09-.027-.143-.175-.214-.267.118-.048.242-.15.35-.136.46.068.91.191 1.37.256.462.066.928.087 1.415.13-.057-.544-.488-.892-.911-.848-.381.041-.762.086-1.185.134.379-.558 2.967-.338 3.44.242-.117.162-.236.328-.413.574 1.829-.244 3.536-.049 5.242.338.088-.711-.653-.5-.852-.87.05-.025.083-.049.119-.061 1.052-.328 2.061-.068 3.076.204.447.119.903.275 1.356.281.845.012 1.695-.053 2.539-.124.358-.03.664.008.941.246.44.376.96.385 1.484.268.341-.078.672-.207 1-.336.555-.218 1.112-.222 1.703-.164 1.134.112 2.276.202 3.413.193.845-.007 1.664-.273 2.173-1.029.248-.367.472-.356.79-.147-.087.296-.288.611-.214.837.058.18.454.248.803.416-.147-.338-.232-.536-.313-.721.909-.151 1.77-.267 2.62-.44.744-.152 1.481-.212 2.225-.056.497.104.988.231 1.481.352.759.185 1.518.32 2.3.139.33-.075.586-.196.604-.598.258 0 .498-.005.736.003.096.003.199.021.288.059.098.04.215.088.27.169.254.383 1.142.772 1.578.644.135-.04.268-.153.354-.269.122-.17.185-.383.305-.554.068-.094.201-.201.305-.202 1.202-.018 2.402-.032 3.602-.008.441.009.88.121 1.32.188.016.05.032.101.049.152-.233.205-.467.41-.699.616.011.044.02.089.031.133 1.331-.079 2.661-.157 4.031-.239v.754c.276-.035.508-.063.782-.098-.05-.441.264-.55.575-.67.879-.339 1.753-.69 2.635-1.02.117-.044.273-.024.401.005 1.8.407 3.616.367 5.437.2 1.911-.177 3.823-.351 5.734-.528.321-.029.613-.029.774.332.036.079.182.163.267.153.684-.072 1.367-.149 2.045-.262.179-.031.335-.194.542-.319-.366-.187-.644-.327-.922-.467.024-.07.047-.141.071-.212.339.042.736-.016 1.004.144.741.44 1.507.506 2.323.379.013-.003.033.029.06.053-.084.136-.17.274-.303.49.313 0 .557.014.799-.003.534-.039 1.066-.1 1.601-.137.336-.023.715.106.897-.338.023-.057.171-.086.263-.089 1.815-.06 3.629-.115 5.504-.172-.201.145-.343.248-.548.395 1.188.137 2.124-.13 2.403-.652-.18-.043-.358-.086-.534-.128.638-.116 1.268-.128 1.894-.184.372-.035.645.049.87.36.095.129.276.266.427.276.785.05 1.573.061 2.36.088.719.024 1.46.11 2.099-.308.418-.275.802-.267 1.23-.082.194.086.392.174.598.208.246.043.502.031.754.042.011-.068.023-.138.032-.207-.313-.072-.628-.145-.941-.219.783-.005 1.549.056 2.316.136.329.035.62.024.915-.189.666-.484 1.064-.415 1.681.149.144.131.395.219.587.206 2.745-.204 5.485-.455 8.23-.642 1.987-.134 3.98-.169 5.967-.293.735-.047 1.424-.021 2.103.297.534.251 1.076.238 1.629-.048.227-.118.543-.104.816-.088.248.015.492.114.737.178.64.169 1.238.13 1.831-.226.351-.21.772-.369 1.177-.413.882-.096 1.772-.111 2.66-.149.916-.039 1.832-.09 2.75-.09.338-.001.677.127 1.018.19.407.073.819.221 1.22.194 1.632-.108 3.259-.281 4.891-.408 1.181-.092 2.369-.12 3.549-.226 1.603-.147 3.199-.331 4.814-.28.872.026 1.748-.046 2.621-.07 1.368-.037 2.735-.093 4.103-.097.588-.001 1.178.169 1.762.148.888-.033 1.772-.151 2.654-.265.266-.034.469-.019.629.206.169.239.388.256.669.214 1.114-.172 2.23-.398 3.352-.451 2.779-.129 5.562-.183 8.344-.245.526-.014 1-.082 1.414-.44.138-.122.341-.17.55-.268.288.649.716 1.044 1.475.949-.079-.16-.184-.295-.315-.397-.148-.116-.32-.207-.513-.328.673-.256 1.277-.171 1.844.116.308.154.521.108.8-.067.884-.561 1.84-.731 2.825-.439-.166.471-.326.922-.485 1.371.04.037.081.073.123.109.17-.058.384-.072.506-.182.562-.51.552-.519 1.082.005.101.099.21.191.302.297.412.48.944.58 1.536.498.224-.032.45-.059.67-.108.69-.155 1.305-.095 1.784.513.21.268.481.467.862.46 1.243-.024 2.487-.007 3.728-.063 1.055-.049 2.107-.178 3.16-.273.771-.068 1.471.192 2.175.451.595.217 1.192.433 1.804.588.385.097.775.002 1.097-.334-.252-.089-.468-.165-.798-.282.369-.059.617-.116.866-.134 1.026-.07 2.062-.245 3.075-.16.952.082 1.891.24 2.857.216 2.471-.058 4.942-.065 7.411-.101.125-.001.336-.051.359-.124.137-.433.457-.364.782-.347 1.8.09 3.6.259 5.391-.18.633-.154 1.308-.2 1.961-.192 1.058.016 2.124.362 3.158-.166.089-.046.285.01.372.086.338.3.73.336 1.15.304.634-.049 1.268-.081 1.9-.15.562-.06 1.12-.162 1.68-.244-.001-.036-.004-.071-.005-.107-.413-.04-.827-.081-1.24-.121.004-.015.008-.03.013-.044h3.519c.176.398.428.741.04 1.125.664-.143 1.328-.284 2.027-.435-.142-.233-.243-.404-.403-.67.417.056.837-.218.871.41.002.063.197.184.269.163.195-.057.417-.135.547-.279.23-.25.478-.294.796-.269.418.035.861.103 1.261.015 1.637-.358 3.276-.384 4.924-.14.968.144.976.152 1.168 1.1.055.266.153.368.439.374 1.524.032 3.049.095 4.573.132.551.015 1.128.096 1.645-.037 2.172-.557 4.363-.461 6.566-.348 1.401.072 2.813.349 4.206-.08.078-.024.17-.001.252.008.56.068 1.126.113 1.68.215.822.152 1.588.062 2.335-.328.225-.119.512-.154.773-.163.946-.037 1.892-.064 2.839-.063.604 0 1.213.02 1.811.1.592.08 1.16.116 1.754-.02.755-.172 1.527-.314 2.298-.353 1.137-.057 2.284-.06 3.421.003 3.607.197 7.191-.067 10.777-.391 1.388-.127 2.791-.101 4.144-.144.158.345.291.635.428.939-.568.437-1.384.446-1.954 1.12.794-.06 1.461-.112 2.129-.163l.096.115c-.165.126-.389.221-.481.389-.142.257-.287.576-.256.849.042.38.806.85 1.229.822 1.395-.091 2.788-.208 4.181-.296.295-.019.371-.164.412-.416.12-.736.263-1.468.391-2.203.034-.191.073 1.626.115 4.923h-299.666c-.003-.733-.005-1.353-.005-1.848.107.066.237.112.315.202.43.504.956.456 1.508.282.294-.095.586-.2.88-.296.261-.086.441-.04.656.188.188.2.562.413.788.357.81-.204 1.594-.092 2.393.009.635.08 1.276.238 1.889.028.023-.521-.175-.815-.677-.862l-.073-.006c.025.001.049.003.073.006zm7.935.558c.117.212.484.314.857.31.374-.004.755-.114.9-.328-.337-.219-1.315-.21-1.757.018zm24.237-.712c.015.046.029.091.045.136.307 0 .624-.048.919.01.48.094.94.282 1.42.374.169.032.405-.058.544-.174.096-.08.137-.327.084-.447-.045-.101-.259-.175-.401-.18-.52-.016-1.043-.031-1.56.017-.356.034-.7.172-1.051.264zm13.905-.276c-.322-.18-.823-.258-1.286-.241-.463.018-.888.13-1.058.329.4.214 2.099.151 2.344-.088zm216.062-1.742c-.508-.144-1.096-.132-1.607-.006s-.945.366-1.148.679c.513.6 2.363.163 2.755-.673zm18.961.586c.071 0 .172.03.205-.005.184-.189.378-.38.511-.603.037-.062-.092-.322-.183-.348-.321-.088-.658-.133-.992-.15-.109-.006-.296.102-.326.197-.102.309.438.911.785.909zm-11.825-1.721c-.015.039-.03.079-.044.117.189.127.38.254.494.331 0 .337-.114.74.03.879.172.166.561.109.906.156-.049-.218-.078-.348-.108-.474.362-.206.859-.108 1.139-.592-.841-.145-1.629-.281-2.417-.417zm-1.759.483c-.343 0-.636-.031-.923.005-1.088.137-2.173.295-3.257.452-.083.012-.155.085-.232.131.069.077.125.186.213.224.126.053.275.053.414.078.993.182 1.961-.09 2.937-.182.353-.034.667-.226.848-.708z"
            fill="#ffb71b" fill-rule="nonzero" />
    </g>
</svg>