<svg xmlns="http://www.w3.org/2000/svg" clip-rule="evenodd" fill-rule="evenodd" stroke-linejoin="round"
    stroke-miterlimit="2" viewBox="0 0 681 18">
    <path
        d="m922.026 380.441c-.025 4.008-.051 7.17-.077 9.315-.24-.154-.536-.26-.708-.468-.965-1.159-2.163-1.064-3.419-.682-.674.206-1.341.436-2.013.647-.593.187-1.004.077-1.483-.444-.422-.46-1.265-.956-1.781-.835-1.849.439-3.628.162-5.441-.089-1.439-.199-2.891-.575-4.291-.119-.066 1.188.376 1.861 1.519 1.984l.161.014c-.055-.004-.109-.008-.161-.014-1.584-.137-3.093-.412-4.583-.77-1.211-.291-2.381-.772-3.599-1.007-.782-.151-1.621-.008-2.436.004-.001.135-.005.268-.009.404.293.037.592.051.877.119.928.22 1.86.43 2.77.713.204.063.321.4.478.612-.266.107-.554.337-.798.299-1.042-.168-2.064-.46-3.107-.62-1.045-.162-2.107-.223-3.212-.335.115 1.237 1.083 2.043 2.048 1.953.868-.081 1.733-.173 2.699-.273-.879 1.261-6.754.687-7.814-.644.271-.367.544-.739.954-1.295-4.164.503-8.039.015-11.906-.914-.218 1.614 1.472 1.156 1.914 2-.115.058-.19.11-.272.134-2.4.719-4.69.099-6.986-.546-1.012-.286-2.044-.65-3.077-.678-1.92-.052-3.849.071-5.771.208-.816.06-1.509-.037-2.133-.582-.988-.866-2.171-.906-3.363-.651-.78.165-1.536.451-2.284.733-1.266.479-2.533.475-3.874.326-2.574-.284-5.167-.526-7.752-.536-1.924-.008-3.79.574-4.97 2.28-.573.828-1.081.797-1.798.31.206-.668.67-1.38.51-1.897-.126-.408-1.024-.576-1.816-.967.326.774.515 1.224.694 1.648-2.071.315-4.031.556-5.968.926-1.695.324-3.372.441-5.059.066-1.125-.25-2.24-.554-3.357-.842-1.719-.443-3.439-.768-5.223-.383-.751.164-1.336.432-1.389 1.344-.587-.007-1.13-.001-1.672-.025-.222-.011-.451-.058-.652-.144-.223-.094-.49-.206-.61-.391-.566-.879-2.576-1.788-3.57-1.509-.307.085-.615.341-.81.602-.285.38-.432.863-.71 1.248-.156.215-.462.454-.7.455-2.728.004-5.459.003-8.187-.085-1.001-.034-1.996-.302-2.995-.463-.034-.116-.069-.233-.104-.349.534-.46 1.068-.922 1.604-1.382-.022-.098-.044-.2-.066-.301-3.027.141-6.054.284-9.17.429.008-.613.014-1.113.02-1.712-.626.071-1.156.13-1.778.199.102 1.004-.616 1.244-1.327 1.508-2.005.745-4.001 1.516-6.016 2.241-.268.098-.62.05-.912-.02-4.081-.974-8.208-.937-12.351-.606-4.349.346-8.698.685-13.048 1.036-.73.058-1.394.049-1.752-.776-.077-.178-.406-.374-.601-.356-1.555.144-3.112.301-4.653.541-.408.064-.77.428-1.242.708.826.433 1.454.76 2.08 1.088-.054.16-.109.319-.165.477-.768-.104-1.673.016-2.279-.354-1.67-1.022-3.41-1.192-5.266-.926-.032.004-.079-.068-.138-.124.198-.306.394-.616.706-1.104-.715-.009-1.268-.048-1.819-.016-1.215.072-2.427.2-3.644.27-.763.042-1.617-.266-2.045.741-.056.129-.394.191-.603.195-4.124.085-8.252.157-12.513.234.46-.322.785-.55 1.257-.882-2.696-.343-4.833.238-5.48 1.416.409.102.809.205 1.211.306-1.454.246-2.887.254-4.311.366-.845.068-1.464-.132-1.969-.842-.212-.298-.62-.614-.962-.64-1.782-.138-3.573-.186-5.36-.268-1.634-.074-3.316-.29-4.778.642-.96.612-1.835.584-2.802.149-.436-.197-.886-.404-1.352-.489-.558-.103-1.14-.083-1.712-.116-.026.157-.054.313-.081.47.712.174 1.425.348 2.136.522-1.78-.008-3.523-.171-5.26-.372-.749-.087-1.411-.074-2.085.404-1.527 1.08-2.43.914-3.819-.387-.321-.301-.891-.511-1.327-.483-6.242.387-12.481.879-18.726 1.226-4.518.25-9.048.274-13.568.5-1.668.082-3.238.006-4.772-.736-1.206-.584-2.439-.571-3.702.064-.52.262-1.238.221-1.857.176-.565-.042-1.117-.271-1.673-.424-1.451-.402-2.807-.33-4.166.462-.804.468-1.765.815-2.686.906-2.008.194-4.034.201-6.052.262-2.083.066-4.167.152-6.25.13-.772-.008-1.538-.31-2.31-.46-.922-.18-1.856-.527-2.77-.479-3.71.2-7.414.549-11.124.792-2.69.176-5.39.204-8.076.415-3.645.288-7.277.66-10.948.501-1.981-.085-3.972.053-5.958.083-3.11.046-6.218.134-9.327.106-1.336-.012-2.675-.418-4.005-.386-2.016.049-4.03.293-6.036.528-.606.07-1.067.032-1.423-.486-.379-.548-.875-.593-1.515-.504-2.538.359-5.08.842-7.632.928-6.321.216-12.648.26-18.97.327-1.198.012-2.278.155-3.224.959-.32.272-.784.373-1.263.592-.635-1.482-1.599-2.391-3.323-2.199.172.368.408.675.703.911.335.27.721.478 1.159.762-1.538.56-2.91.351-4.191-.316-.695-.361-1.183-.262-1.817.13-2.027 1.249-4.203 1.608-6.439.916.395-1.066.771-2.083 1.147-3.103-.092-.083-.184-.165-.276-.249-.392.128-.876.15-1.159.4-1.289 1.141-1.269 1.164-2.457-.043-.227-.228-.472-.439-.679-.684-.923-1.103-2.131-1.344-3.479-1.172-.509.064-1.021.119-1.521.224-1.575.335-2.971.181-4.041-1.216-.472-.613-1.083-1.076-1.951-1.069-2.824.018-5.649-.056-8.472.038-2.4.082-4.792.346-7.191.53-1.753.134-3.336-.476-4.93-1.083-1.344-.512-2.696-1.02-4.082-1.388-.874-.233-1.762-.029-2.504.727.57.21 1.058.389 1.807.665-.844.12-1.407.244-1.977.277-2.331.134-4.69.5-6.99.278-2.16-.211-4.29-.598-6.49-.572-5.614.065-11.23.01-16.844.022-.284.002-.766.108-.82.275-.322.98-1.046.812-1.786.765-4.092-.256-8.177-.693-12.26.255-1.442.335-2.974.421-4.461.38-2.404-.063-4.819-.88-7.183.291-.204.101-.646-.031-.841-.206-.76-.689-1.653-.784-2.607-.722-1.441.093-2.885.148-4.322.286-1.28.123-2.552.336-3.827.51.003.08.007.162.009.242.939.104 1.878.208 2.816.31-.009.034-.018.066-.029.098-2.685-.032-5.369-.065-7.999-.098-.39-.91-.954-1.696-.061-2.556-1.513.304-3.024.608-4.619.928.315.536.543.925.899 1.536-.949-.139-1.912.469-1.968-.956-.007-.144-.443-.424-.608-.379-.444.124-.951.296-1.253.617-.528.566-1.095.659-1.814.591-.954-.091-1.953-.256-2.868-.069-3.729.766-7.454.781-11.193.18-2.197-.354-2.216-.374-2.625-2.532-.116-.608-.338-.843-.986-.864-3.465-.118-6.928-.302-10.392-.431-1.249-.047-2.558-.247-3.738.04-4.954 1.205-9.928.927-14.935.607-3.18-.204-6.383-.874-9.563.065-.174.051-.382-.001-.572-.027-1.272-.172-2.553-.289-3.809-.537-1.863-.368-3.612-.187-5.317.684-.518.26-1.17.329-1.764.347-2.15.058-4.302.093-6.452.064-1.375-.02-2.758-.082-4.114-.282-1.342-.197-2.632-.296-3.989-.002-1.719.369-3.479.672-5.231.737-2.588.097-5.192.073-7.776-.101-8.19-.551-16.345-.052-24.505.584-3.16.248-6.345.15-9.423.21-.349-.79-.642-1.45-.948-2.144 1.306-.978 3.16-.976 4.476-2.492-1.81.116-3.326.214-4.844.311-.072-.088-.144-.175-.216-.263.378-.284.891-.493 1.104-.872.328-.581.67-1.301.606-1.922-.087-.864-1.81-1.955-2.77-1.903-3.172.169-6.341.395-9.514.556-.67.033-.844.363-.946.932-.294 1.669-.64 3.331-.952 4.999-.068.363-.106-2.503-.118-7.883zm-122.437 8.987c.727.42 1.863.61 2.916.584 1.053-.027 2.022-.27 2.413-.718-.902-.497-4.768-.4-5.329.134zm31.612-.238c-.033-.101-.065-.205-.099-.308-.698-.008-1.417.09-2.089-.05-1.087-.224-2.128-.666-3.216-.887-.384-.079-.924.121-1.241.381-.22.176-.322.739-.204 1.012.098.232.584.404.906.419 1.18.052 2.372.1 3.548.005.808-.066 1.598-.373 2.395-.572zm-538.987.5c.036-.086.071-.174.107-.262-.429-.295-.857-.588-1.116-.766.009-.768.279-1.68-.041-1.998-.387-.386-1.275-.267-2.058-.382.107.495.171.794.232 1.082-.826.458-1.953.218-2.606 1.312 1.909.353 3.696.684 5.482 1.014zm4.014-1.046c.776.01 1.444.088 2.096.014 2.476-.282 4.948-.609 7.418-.937.186-.025.352-.188.528-.288-.154-.177-.28-.428-.476-.516-.286-.125-.624-.129-.938-.191-2.254-.44-4.459.151-6.68.332-.804.068-1.52.495-1.948 1.586zm590.078-.391c-.259-.483-1.089-.726-1.938-.727-.848-.001-1.716.239-2.052.722.757.508 2.98.512 3.99.005zm-620.918-2.805c-.16-.003-.388-.074-.468.005-.424.424-.866.852-1.176 1.356-.088.143.197.736.406.796.726.209 1.492.323 2.25.371.248.014.674-.224.746-.44.239-.702-.968-2.083-1.758-2.088zm43.078 1.865c1.15.34 2.485.33 3.651.058 1.165-.271 2.161-.805 2.632-1.511-1.152-1.378-5.368-.436-6.283 1.453z"
        fill="#ffb81c" fill-rule="nonzero" transform="translate(-240.9 -380.441)" />
</svg>