<svg width="30" height="30" viewBox="0 0 30 30" fill="none" xmlns="http://www.w3.org/2000/svg">
<path d="M17.6162 3.4668C21.3429 3.4668 24.5089 4.60698 26.46 7.0293C28.393 9.42923 28.8048 12.5904 28.2295 15.8623C27.448 20.3069 24.9372 23.1129 22.041 24.7109C19.2699 26.2398 16.2902 26.6806 13.8945 26.6807H0.473633L2.0293 22.5488H6.38281V15.0889H10.7021V22.5488H13.8945C16.4478 22.5488 18.2168 21.9356 19.791 20.8955C21.3651 19.8554 23.0432 18.0025 23.5479 15.1328C23.9499 12.8462 23.6454 11.0123 22.7793 9.68457C21.9129 8.3568 20.2557 7.60254 17.6162 7.60254H15.0225V15.0889H10.7021V7.60254H4.88867L6.45605 3.4668H17.6162Z" fill="#E0DDCA"/>
</svg>
