<svg width="24" height="24" viewBox="0 0 24 24" fill="none" xmlns="http://www.w3.org/2000/svg">
<path d="M3 6.27273H4.63636V4.63636H19.3636V6.27273H21V3H3V6.27273ZM9.54545 19.3636H11.1818V11.1818H9.54545V19.3636ZM11.1818 21H14.4545V11.1818H12.8182V19.3636H11.1818V21ZM7.90909 11.1818H9.54545V9.54545H7.90909V11.1818ZM6.27273 9.54545H7.90909V7.90909H6.27273V9.54545ZM4.63636 7.90909H6.27273V6.27273H4.63636V7.90909ZM14.4545 11.1818H16.0909V9.54545H14.4545V11.1818ZM16.0909 9.54545H17.7273V7.90909H16.0909V9.54545ZM17.7273 7.90909H19.3636V6.27273H17.7273V7.90909Z" fill="#33603B"/>
</svg>
