<svg width="1365" height="125" viewBox="0 0 1365 125" fill="none" xmlns="http://www.w3.org/2000/svg">
<path fill-rule="evenodd" clip-rule="evenodd" d="M441.079 6.083C441.127 7.248 441.364 7.485 441.683 6.688C441.972 5.966 441.936 5.103 441.604 4.771C441.272 4.439 441.036 5.029 441.079 6.083ZM649.079 77.083C649.127 78.248 649.364 78.485 649.683 77.688C649.972 76.966 649.936 76.103 649.604 75.771C649.272 75.439 649.036 76.029 649.079 77.083ZM649 97.559C649 98.141 649.45 98.34 650 98C650.55 97.66 651 97.184 651 96.941C651 96.698 650.55 96.5 650 96.5C649.45 96.5 649 96.977 649 97.559Z" fill="#33603B"/>
<path fill-rule="evenodd" clip-rule="evenodd" d="M424.325 27.75C424.437 42.738 424.886 55.563 425.323 56.25C425.786 56.979 425.652 57.5 425 57.5C424.385 57.5 424.131 57.903 424.435 58.395C425.244 59.705 423.243 60.072 416.5 59.853C407.393 59.556 359.668 59.498 359.383 59.784C359.245 59.921 358.907 69.026 358.63 80.017C358.353 91.008 358.099 100.563 358.064 101.25C358.024 102.025 356.52 102.5 354.101 102.5H350.203L349.504 95.536C348.796 88.491 347.658 86.916 343.854 87.715C342.793 87.939 342.565 86.433 342.802 80.75L343.103 73.5H339.552C336.159 73.5 336 73.657 336 77C336 80.067 335.69 80.5 333.5 80.5C330.919 80.5 330.658 81.048 330.975 85.8C331.142 88.313 330.871 88.57 328.337 88.3C325.809 88.032 325.46 88.359 325.007 91.421C324.612 94.083 324.001 94.877 322.25 95.003C319.439 95.206 318.791 95.847 318.493 98.718C318.108 102.42 318.065 102.5 316.5 102.5C315.456 102.5 315 101.449 315 99.045C315 95.886 314.699 95.534 311.486 94.931C309.553 94.569 306.868 94.483 305.518 94.741L303.063 95.211L303.688 84.286L304.314 73.361L300.407 73.68C296.808 73.975 296.475 74.257 296.187 77.25C295.909 80.134 295.514 80.517 292.687 80.648C290.934 80.729 288.6 80.842 287.5 80.898C286.001 80.974 285.421 81.814 285.187 84.25C284.929 86.923 284.449 87.5 282.482 87.5C280.546 87.5 279.967 88.159 279.442 90.96L278.793 94.419L259.395 94.71L239.998 95L239.999 65.75L240 36.5H232H224L223.897 33.25C223.84 31.462 223.879 26.512 223.983 22.25L224.173 14.5H215.055C208.68 14.5 205.795 14.876 205.465 15.75C205.205 16.437 204.863 30.833 204.706 47.74C204.51 68.879 204.068 78.832 203.292 79.608C202.627 80.273 198.024 80.801 192.082 80.894L182 81.052V70.276C182 64.349 181.662 59.442 181.25 59.371C180.838 59.3 175.871 59.134 170.214 59.002C164.556 58.869 159.682 58.516 159.383 58.216C159.083 57.916 158.851 54.932 158.867 51.585C158.891 46.516 158.612 45.5 157.198 45.501C155.882 45.501 155.526 44.657 155.613 41.751C155.78 36.255 155.429 35.899 149.9 35.952C144.211 36.006 143.343 36.879 142.174 43.726L141.455 47.938L135.04 48.184C131.511 48.32 128.128 48.621 127.521 48.854C126.795 49.132 126.337 54.699 126.182 65.138C125.997 77.655 125.64 81.232 124.491 82.098C123.689 82.702 122.835 84.277 122.591 85.598C122.348 86.919 122.083 88 122.002 88C121.921 88 121.746 91.254 121.613 95.231C121.481 99.208 121.094 102.74 120.754 103.079C120.414 103.419 111.668 103.632 101.318 103.553C90.968 103.474 81.15 103.406 79.5 103.402C73.546 103.386 2.47 104.561 1.25 104.696C0.344 104.795 0 107.54 0 114.667V124.5H682.5H1365V103.168V81.837L1324.27 81.601C1301.86 81.472 1283.34 81.174 1283.11 80.939C1282.87 80.704 1282.62 78.822 1282.55 76.756C1282.43 73.184 1282.25 72.985 1278.78 72.694C1275.66 72.431 1275.04 71.964 1274.49 69.444C1273.96 67.036 1273.33 66.5 1271.03 66.5C1268.27 66.5 1266.39 68.708 1267.56 70.59C1267.87 71.091 1267.64 71.5 1267.06 71.5C1266.48 71.5 1266 73.029 1266 74.899C1266 78.075 1265.79 78.294 1262.75 78.255C1256.51 78.173 1255 78.508 1255 79.969C1255 80.804 1254.41 81.21 1253.62 80.91C1252.68 80.545 1252.11 77.902 1251.79 72.349C1251.28 63.548 1250.61 62.541 1245.25 62.515C1242.19 62.501 1242.01 62.3 1242.25 59.25C1242.47 56.318 1242.21 55.964 1239.5 55.632C1236.88 55.309 1236.75 55.162 1238.5 54.452C1239.82 53.918 1238.08 53.617 1233.42 53.57C1227.16 53.508 1226.08 53.78 1224.04 55.955C1221.82 58.32 1221.76 58.808 1222.45 69.455L1223.17 80.5L1213.33 80.539C1180.11 80.671 1164.47 80.329 1164.17 79.464C1163.97 78.898 1157.09 78.5 1147.5 78.5H1131.18L1131.52 63.5L1131.86 48.5H1121.93H1112L1111.83 61.25C1111.73 68.263 1111.62 74.9 1111.56 76C1111.49 77.593 1110.66 78.064 1107.49 78.317C1105.29 78.491 1103.07 79.054 1102.55 79.567C1101.08 81.011 1089.42 80.716 1088.17 79.203C1087.58 78.489 1086.96 74.327 1086.8 69.953L1086.5 62L1079.51 61.5C1072.69 61.013 1072.49 60.923 1071.87 58C1071.52 56.35 1071.18 52.398 1071.12 49.219C1071.04 45.573 1070.54 43.284 1069.75 43.022C1069.06 42.793 1062.8 42.47 1055.83 42.303C1043.47 42.007 1040.12 41.283 1042.96 39.524C1044.15 38.789 1044.16 37.998 1043.03 34.329C1041.79 30.303 1041.29 27.84 1041.08 24.75C1041.02 23.838 1038.26 23.5 1030.87 23.5H1020.74L1021.42 40.75C1021.79 50.237 1022.32 63.063 1022.6 69.25L1023.11 80.5L1010.3 80.607C1003.26 80.666 996.15 80.779 994.5 80.857L991.5 81L991.85 90.25L992.201 99.5H987.18C982.503 99.5 982.121 99.312 981.608 96.75C981.306 95.237 981.104 91.363 981.161 88.141C981.286 81.083 980.655 80.536 972.367 80.515C965.341 80.498 965.038 80.093 965.014 70.684C964.994 63.049 963.799 61.321 958.677 61.522C956.38 61.612 953.053 61.644 951.284 61.593L948.068 61.5L948.484 52.581C948.772 46.392 948.532 43.376 947.699 42.732C947.04 42.22 944.036 41.707 941.024 41.591C938.012 41.475 935.399 41.233 935.219 41.052C935.038 40.871 934.897 36.623 934.905 31.612L934.919 22.5H925.638H916.356L916.786 42L917.215 61.5H914.049C912.192 61.5 911.138 61.086 911.5 60.5C911.84 59.95 911.668 59.5 911.118 59.5C910.568 59.5 909.885 59.876 909.601 60.336C909.317 60.796 906.959 61.253 904.361 61.351C901.762 61.449 899.408 61.759 899.127 62.039C898.847 62.319 898.735 66.588 898.877 71.524C899.094 79.032 898.885 80.5 897.604 80.5C896.323 80.5 896.107 82.015 896.286 89.75L896.5 99H894C891.701 99 891.501 98.637 891.516 94.5C891.524 92.025 891.112 89.702 890.6 89.339C890.088 88.975 889.747 86.612 889.843 84.089C890.007 79.729 889.878 79.494 887.258 79.385C885.741 79.322 883.712 79.35 882.75 79.448C881.187 79.607 881 78.548 881 69.563V59.5H876.5H872V64.5V69.5H868.5H865V74.5V79.5H861C857.708 79.5 856.978 79.854 856.875 81.5C856.806 82.6 856.638 83.95 856.5 84.5C856.362 85.05 856.194 86.4 856.125 87.5C856.022 89.141 855.292 89.5 852.055 89.5H848.11L847.805 94.172C847.491 98.978 845.06 101.652 844.93 97.333C844.864 95.138 844.809 95.118 844 97C843.349 98.514 843.124 97.875 843.07 94.367C842.989 89.016 842.761 88.894 833.106 89.01L826.711 89.086L827.371 74.464L828.031 59.842L823.015 59.728C820.257 59.665 817.966 59.925 817.923 60.307C817.881 60.688 817.64 61.9 817.388 63C817.135 64.1 816.832 66.045 816.714 67.321C816.51 69.535 816.187 69.628 809.748 69.321C803.595 69.029 802.982 69.178 802.845 71C802.763 72.1 802.591 73.45 802.463 74C802.335 74.55 802.179 76.013 802.115 77.25C802.019 79.133 801.429 79.5 798.5 79.5C795.366 79.5 794.993 79.787 794.93 82.25C794.759 88.926 796.986 88.53 759.481 88.564L725.5 88.596L725.827 83.493C726.218 77.39 724.946 75.5 720.447 75.5C717.778 75.5 717.077 75.935 716.82 77.75C716.583 79.418 715.935 79.922 714.313 79.698C711.592 79.322 709.708 82.488 710.582 85.97C711.001 87.639 710.757 88.645 709.856 88.969C709.11 89.237 697.137 89.579 683.249 89.728C663.956 89.936 657.998 89.713 657.999 88.785C658 88.117 657.16 87.121 656.134 86.572C654.996 85.963 654.009 83.958 653.606 81.437C652.658 75.51 651.202 74.464 644.327 74.769L638.5 75.028L638 88.514C637.595 99.447 637.358 101.074 636.75 97.11C636.337 94.421 636 90.289 636 87.928C636 84.519 635.59 83.505 634.009 83.003C632.914 82.655 631.596 82.632 631.08 82.95C630.565 83.269 629.998 82.51 629.821 81.265C629.391 78.229 625 77.415 625 80.371C625 81.477 624.57 82.648 624.044 82.973C623.518 83.298 623.33 84.197 623.627 84.97C624.03 86.02 623.069 86.456 619.833 86.688C615.507 87 615.5 87.006 615.193 91.25C614.887 95.473 614.86 95.5 610.973 95.5H607.062L606.781 83.25L606.5 71L603.609 70.67C600.146 70.275 598.79 71.984 599.581 75.75C600.113 78.28 599.912 78.5 597.079 78.5H594L593.8 87.75C593.691 92.838 593.639 98.186 593.685 99.636L593.77 102.273L572.725 102.426C561.15 102.511 551.302 102.813 550.84 103.099C550.378 103.384 550 99.991 550 95.559V87.5L543.75 87.343C540.313 87.256 534.709 87.272 531.298 87.378L525.097 87.571L525.496 76.536L525.894 65.5H518.447H511V76.5V87.5H507.5C504.083 87.5 504 87.595 504 91.5C504 93.7 503.55 95.5 503 95.5C502.45 95.5 502 93.756 502 91.625C502 89.494 501.73 86.402 501.401 84.754L500.802 81.759L491.679 81.574C486.662 81.473 482.319 81.154 482.028 80.866C481.738 80.578 481.275 75.766 481 70.171L480.5 60L473 59.818C468.875 59.718 464.911 59.605 464.191 59.568C463.471 59.531 463.16 59.05 463.5 58.5C463.84 57.95 463.754 57.5 463.309 57.499C462.864 57.498 462.333 49.511 462.129 39.749C461.925 29.987 461.616 18.4 461.443 14C461.27 9.6 461.099 4.854 461.064 3.454C461.009 1.249 460.511 0.876 457.335 0.662C455.185 0.517 453.332 0.949 452.851 1.708C452.217 2.707 452.027 2.717 452.015 1.75C451.995 0.125 449.318 0.125 448.662 1.75C448.259 2.75 448.142 2.75 448.079 1.75C447.976 0.118 442.321 0.118 441.662 1.75C441.259 2.75 441.142 2.75 441.079 1.75C440.969 0.00599992 427.366 0.00599992 426.662 1.75C426.259 2.75 426.142 2.75 426.079 1.75C426.036 1.063 425.577 0.5 425.061 0.5C424.493 0.5 424.202 11.282 424.325 27.75ZM441.683 6.688C441.364 7.485 441.127 7.248 441.079 6.083C441.036 5.029 441.272 4.439 441.604 4.771C441.936 5.103 441.972 5.966 441.683 6.688ZM649.683 77.688C649.364 78.485 649.127 78.248 649.079 77.083C649.036 76.029 649.272 75.439 649.604 75.771C649.936 76.103 649.972 76.966 649.683 77.688ZM1243.73 85.228C1243.51 87.302 1243.33 85.85 1243.33 82C1243.32 78.15 1243.5 76.452 1243.72 78.228C1243.94 80.003 1243.95 83.153 1243.73 85.228ZM651 96.941C651 97.184 650.55 97.66 650 98C649.45 98.34 649 98.141 649 97.559C649 96.977 649.45 96.5 650 96.5C650.55 96.5 651 96.698 651 96.941ZM927.5 98.5C927.84 99.05 927.641 99.5 927.059 99.5C926.477 99.5 926 99.05 926 98.5C926 97.95 926.198 97.5 926.441 97.5C926.684 97.5 927.16 97.95 927.5 98.5Z" fill="#33603B"/>
<path fill-rule="evenodd" clip-rule="evenodd" d="M1131.08 59.083C1131.13 60.248 1131.36 60.485 1131.68 59.688C1131.97 58.966 1131.94 58.103 1131.6 57.771C1131.27 57.439 1131.04 58.029 1131.08 59.083ZM871.354 59.127C870.626 59.426 870.382 61.258 870.684 64.157C870.945 66.664 870.786 68.499 870.329 68.233C869.873 67.968 868.6 68.112 867.5 68.555C865.844 69.221 866.043 69.372 868.657 69.43C871.787 69.499 871.818 69.451 872.157 63.999C872.346 60.973 872.5 58.533 872.5 58.578C872.5 58.622 871.984 58.869 871.354 59.127ZM1242.08 61.083C1242.13 62.248 1242.36 62.485 1242.68 61.688C1242.97 60.966 1242.94 60.103 1242.6 59.771C1242.27 59.439 1242.04 60.029 1242.08 61.083ZM1267.46 66.567C1267.1 67.153 1267.01 67.848 1267.28 68.11C1267.54 68.372 1268.02 67.892 1268.34 67.043C1269.02 65.281 1268.44 64.971 1267.46 66.567ZM1270.75 66.162C1271.44 66.44 1272.56 66.44 1273.25 66.162C1273.94 65.885 1273.38 65.658 1272 65.658C1270.62 65.658 1270.06 65.885 1270.75 66.162ZM1131.08 68.083C1131.13 69.248 1131.36 69.485 1131.68 68.688C1131.97 67.966 1131.94 67.103 1131.6 66.771C1131.27 66.439 1131.04 67.029 1131.08 68.083ZM827.328 77C827.333 80.85 827.513 82.302 827.73 80.228C827.946 78.153 827.943 75.003 827.722 73.228C827.501 71.452 827.324 73.15 827.328 77ZM864.079 72.083C864.127 73.248 864.364 73.485 864.683 72.688C864.972 71.966 864.936 71.103 864.604 70.771C864.272 70.439 864.036 71.029 864.079 72.083ZM719.996 75.242C721.919 75.474 724.169 76.189 724.996 76.832C726.306 77.849 726.323 77.774 725.128 76.25C724.216 75.087 722.538 74.554 720.128 74.66L716.5 74.82L719.996 75.242ZM1243.33 82C1243.33 85.85 1243.51 87.302 1243.73 85.228C1243.95 83.153 1243.94 80.003 1243.72 78.228C1243.5 76.452 1243.32 78.15 1243.33 82ZM1282.08 77.083C1282.13 78.248 1282.36 78.485 1282.68 77.688C1282.97 76.966 1282.94 76.103 1282.6 75.771C1282.27 75.439 1282.04 76.029 1282.08 77.083ZM335.079 79.083C335.127 80.248 335.364 80.485 335.683 79.688C335.972 78.966 335.936 78.103 335.604 77.771C335.272 77.439 335.036 78.029 335.079 79.083ZM715.564 79.207C715.022 80.632 715.136 80.747 716.124 79.767C716.808 79.088 717.115 78.281 716.807 77.974C716.499 77.666 715.94 78.221 715.564 79.207ZM1254.34 79.043C1254.02 79.892 1254.03 80.867 1254.38 81.21C1254.72 81.553 1255 81.116 1255 80.24C1255 79.364 1255.79 78.441 1256.75 78.189C1258.39 77.761 1258.39 77.725 1256.72 77.616C1255.74 77.552 1254.67 78.194 1254.34 79.043ZM525.079 80.083C525.127 81.248 525.364 81.485 525.683 80.688C525.972 79.966 525.936 79.103 525.604 78.771C525.272 78.439 525.036 79.029 525.079 80.083ZM593.36 87.5C593.36 92.725 593.529 94.862 593.735 92.25C593.941 89.638 593.941 85.362 593.735 82.75C593.529 80.138 593.36 82.275 593.36 87.5ZM794.232 82.5C794.232 84.425 794.438 85.213 794.689 84.25C794.941 83.287 794.941 81.713 794.689 80.75C794.438 79.787 794.232 80.575 794.232 82.5ZM856.079 82.083C856.127 83.248 856.364 83.485 856.683 82.688C856.972 81.966 856.936 81.103 856.604 80.771C856.272 80.439 856.036 81.029 856.079 82.083ZM510.158 85.5C510.158 86.875 510.385 87.438 510.662 86.75C510.94 86.063 510.94 84.938 510.662 84.25C510.385 83.563 510.158 84.125 510.158 85.5ZM725 86.441C725 87.509 725.385 88.62 725.856 88.911C726.326 89.202 726.499 88.328 726.239 86.97C725.675 84.019 725 83.731 725 86.441ZM710.079 87.083C710.127 88.248 710.364 88.485 710.683 87.688C710.972 86.966 710.936 86.103 710.604 85.771C710.272 85.439 710.036 86.029 710.079 87.083ZM347.565 87.395C347.26 87.888 347.661 88.54 348.455 88.844C349.418 89.214 349.713 88.916 349.342 87.949C348.697 86.269 348.331 86.155 347.565 87.395ZM505.75 87.162C506.438 87.44 507.563 87.44 508.25 87.162C508.938 86.885 508.375 86.658 507 86.658C505.625 86.658 505.063 86.885 505.75 87.162ZM529.813 87.183C530.534 87.472 531.397 87.436 531.729 87.104C532.061 86.772 531.471 86.536 530.417 86.579C529.252 86.627 529.015 86.864 529.813 87.183ZM540.768 87.225C542.565 87.447 545.265 87.443 546.768 87.215C548.271 86.986 546.8 86.804 543.5 86.81C540.2 86.815 538.971 87.002 540.768 87.225ZM279.079 89.083C279.127 90.248 279.364 90.485 279.683 89.688C279.972 88.966 279.936 88.103 279.604 87.771C279.272 87.439 279.036 88.029 279.079 89.083ZM328.813 88.183C329.534 88.472 330.397 88.436 330.729 88.104C331.061 87.772 330.471 87.536 329.417 87.579C328.252 87.627 328.015 87.864 328.813 88.183ZM303.158 90.5C303.158 91.875 303.385 92.438 303.662 91.75C303.94 91.063 303.94 89.938 303.662 89.25C303.385 88.563 303.158 89.125 303.158 90.5ZM827.813 89.183C828.534 89.472 829.397 89.436 829.729 89.104C830.061 88.772 829.471 88.536 828.417 88.579C827.252 88.627 827.015 88.864 827.813 89.183ZM835.75 89.162C836.438 89.44 837.563 89.44 838.25 89.162C838.938 88.885 838.375 88.658 837 88.658C835.625 88.658 835.063 88.885 835.75 89.162ZM850.762 89.207C852.006 89.446 853.806 89.437 854.762 89.187C855.718 88.937 854.7 88.741 852.5 88.752C850.3 88.763 849.518 88.968 850.762 89.207ZM323.881 92.281C323.552 94.269 323.698 95.202 324.253 94.647C324.757 94.143 325.002 92.666 324.797 91.365C324.482 89.364 324.342 89.504 323.881 92.281ZM312.813 95.183C313.534 95.472 314.397 95.436 314.729 95.104C315.061 94.772 314.471 94.536 313.417 94.579C312.252 94.627 312.015 94.864 312.813 95.183ZM318.459 95.567C317.433 97.227 318.354 97.457 319.789 95.899C320.499 95.13 320.638 94.5 320.098 94.5C319.559 94.5 318.821 94.98 318.459 95.567ZM607.813 95.183C608.534 95.472 609.397 95.436 609.729 95.104C610.061 94.772 609.471 94.536 608.417 94.579C607.252 94.627 607.015 94.864 607.813 95.183ZM611.75 95.162C612.438 95.44 613.563 95.44 614.25 95.162C614.938 94.885 614.375 94.658 613 94.658C611.625 94.658 611.063 94.885 611.75 95.162ZM637.158 99.5C637.158 100.875 637.385 101.438 637.662 100.75C637.94 100.063 637.94 98.938 637.662 98.25C637.385 97.563 637.158 98.125 637.158 99.5ZM891.733 98.624C892.412 99.308 893.219 99.615 893.526 99.307C893.834 98.999 893.279 98.44 892.293 98.064C890.868 97.522 890.753 97.636 891.733 98.624ZM926 98.5C926 99.05 926.477 99.5 927.059 99.5C927.641 99.5 927.84 99.05 927.5 98.5C927.16 97.95 926.684 97.5 926.441 97.5C926.198 97.5 926 97.95 926 98.5Z" fill="#33603B"/>
<path fill-rule="evenodd" clip-rule="evenodd" d="M422.348 7.25C422.699 10.963 422.989 22.063 422.993 31.917C422.997 41.771 423.273 49.56 423.606 49.227C423.94 48.893 424.224 42.181 424.237 34.31C424.285 6.293 424.048 0.5 422.855 0.5C422.046 0.5 421.897 2.477 422.348 7.25ZM461.156 5.044C461.262 7.851 461.641 9.093 462.148 8.294C463.316 6.453 463.197 0.5 461.992 0.5C461.437 0.5 461.061 2.543 461.156 5.044ZM461.626 11.296C461.356 11.733 461.28 13.901 461.457 16.113C461.635 18.325 461.942 28.546 462.14 38.827C462.438 54.281 462.741 57.428 463.891 56.987C465.03 56.551 465.053 56.732 464.019 57.977C462.918 59.304 463.382 59.51 467.628 59.581C470.307 59.626 473.77 59.755 475.323 59.867C476.876 59.98 478.345 59.751 478.588 59.358C479.212 58.348 475.789 57.41 472.381 57.657C470.796 57.772 468.552 57.352 467.394 56.725C464.59 55.206 463.817 48.728 463.875 27.25C463.916 12.426 463.361 8.489 461.626 11.296ZM205.783 13.264C204.06 13.635 203.115 16.97 203.024 23C202.93 29.291 202.131 47.489 201.433 59.25C200.957 67.274 201.052 71.5 201.711 71.5C203.118 71.5 202.764 76.721 201.249 78.323C199.874 79.776 187.294 80.418 185.227 79.14C184.552 78.723 183.968 77.171 183.93 75.691C183.891 74.211 183.473 72.1 183 71C182.388 69.575 182.12 70.734 182.07 75.026L182 81.052L192.082 80.894C198.024 80.801 202.627 80.273 203.292 79.608C204.068 78.832 204.51 68.879 204.706 47.74C204.863 30.833 205.205 16.438 205.465 15.75C205.788 14.894 208.45 14.5 213.91 14.5C218.294 14.5 222.116 14.122 222.401 13.66C222.905 12.845 209.242 12.52 205.783 13.264ZM224.195 20C224.215 21.65 224.439 22.204 224.693 21.231C224.947 20.258 224.93 18.908 224.656 18.231C224.382 17.554 224.175 18.35 224.195 20ZM917 21.799C914.557 23.04 914.5 23.327 914.5 34.286C914.5 40.455 914.163 45.502 913.75 45.501C913.337 45.501 913 48.23 913 51.566C913 54.902 912.534 58.502 911.965 59.566C911.046 61.283 911.274 61.5 914.008 61.5H917.087L916.737 42L916.388 22.5H925.654H934.919L934.905 31.612C934.897 36.623 935.038 40.871 935.219 41.052C935.399 41.233 938.012 41.475 941.024 41.591C944.036 41.707 947.04 42.22 947.699 42.732C948.532 43.376 948.772 46.392 948.484 52.581L948.068 61.5L951.284 61.593C953.053 61.644 956.38 61.612 958.677 61.522C963.799 61.321 964.994 63.049 965.014 70.684C965.038 80.093 965.341 80.498 972.367 80.515C980.655 80.536 981.286 81.083 981.161 88.141C981.01 96.727 981.76 99.5 984.234 99.5C986.243 99.5 986.252 99.436 984.509 97.51C983.002 95.845 982.81 94.441 983.327 88.899C983.89 82.876 983.746 82.115 981.738 80.489C980.259 79.291 977.75 78.68 974.135 78.637C971.167 78.601 968.46 78.291 968.12 77.948C967.779 77.605 967.5 74.101 967.5 70.162C967.5 66.223 967.05 62.849 966.5 62.665C965.95 62.481 964.961 61.883 964.303 61.336C963.644 60.79 961.169 60.453 958.803 60.588C950.899 61.04 950 60.264 950 52.992C950 49.486 950.45 46.34 951 46C951.55 45.66 952 44.707 952 43.882C952 43.057 951.588 42.636 951.085 42.947C950.582 43.258 950.018 43.053 949.83 42.491C949.643 41.929 946.68 40.947 943.245 40.308C938.814 39.484 936.97 38.69 936.897 37.573C936.84 36.708 936.855 32.988 936.93 29.306L937.065 22.612L933.283 21.562C928.146 20.135 920.044 20.253 917 21.799ZM1025.5 22.155C1024.4 22.388 1022.58 22.769 1021.47 23.004C1019.55 23.404 1019.42 24.227 1019.28 36.693C1019.17 46.006 1019.47 50.182 1020.31 50.713C1021.2 51.277 1021.2 51.473 1020.33 51.485C1019.52 51.495 1019.29 53.535 1019.59 58.25C1020.36 70.445 1020.93 76.142 1021.54 77.733C1021.9 78.678 1021.61 79.278 1020.82 79.243C1013.09 78.904 993 79.691 993 80.333C993 80.791 994.013 81.053 995.25 80.916C996.487 80.779 1003.26 80.629 1010.31 80.583L1023.12 80.5L1022.59 70.25C1022.3 64.612 1021.79 51.788 1021.46 41.75L1020.85 23.5H1029.59C1034.4 23.5 1038.15 23.336 1037.92 23.135C1037.17 22.481 1027.55 21.722 1025.5 22.155ZM223.694 27.25C223.397 28.762 223.569 30.428 224.077 30.95C224.646 31.536 225 30.481 225 28.2C225 23.821 224.446 23.418 223.694 27.25ZM142.949 35.832C141.078 36.76 140.423 37.981 140.175 41.01C139.997 43.191 139.413 45.503 138.877 46.148C138.24 46.916 138.265 47.546 138.951 47.97C140.645 49.017 141.997 47.584 142.045 44.691C142.07 43.211 142.666 40.65 143.369 39C144.549 36.232 145.046 35.996 149.794 35.952C155.432 35.899 155.78 36.246 155.613 41.751C155.526 44.632 155.887 45.501 157.169 45.501C158.614 45.5 158.701 44.996 157.811 41.75C156.023 35.223 155.458 34.696 150.215 34.655C147.565 34.634 144.295 35.164 142.949 35.832ZM224 35.613C224 36.101 227.45 36.5 231.667 36.5C235.883 36.5 239.016 36.182 238.627 35.794C237.58 34.747 224 34.579 224 35.613ZM240 65.941C240 82.659 240.381 94.5 240.92 94.5C242.079 94.5 241.996 38.615 240.835 37.898C240.376 37.614 240 50.234 240 65.941ZM1042 40.267C1042 41.839 1044.95 42.25 1057.59 42.437C1064.07 42.533 1069.74 42.838 1070.19 43.115C1070.63 43.392 1071.05 46.179 1071.12 49.309C1071.18 52.439 1071.52 56.35 1071.87 58C1072.49 60.923 1072.69 61.013 1079.51 61.5L1086.5 62L1086.8 69.953C1086.96 74.327 1087.58 78.489 1088.17 79.203C1088.87 80.055 1091.52 80.455 1095.87 80.369L1102.5 80.238L1096.89 79.516C1093.81 79.119 1090.88 78.542 1090.38 78.234C1089.88 77.925 1089.48 74.974 1089.5 71.674C1089.52 67.961 1089.14 65.86 1088.51 66.162C1087.96 66.429 1088.38 65.938 1089.45 65.07C1092.35 62.715 1090.36 61.483 1081.92 60.424C1077.9 59.919 1074.23 59.135 1073.78 58.682C1072.83 57.73 1072.49 45.68 1073.39 44.781C1073.72 44.45 1073.01 43.493 1071.81 42.653C1070.2 41.525 1066.61 41.086 1058.06 40.97C1051.7 40.884 1045.49 40.465 1044.25 40.04C1042.9 39.576 1042 39.667 1042 40.267ZM124.5 48.5C124.16 49.05 124.203 50.02 124.595 50.655C125.038 51.37 124.87 51.538 124.155 51.095C123.397 50.627 123 51.261 123 52.941C123 54.348 123.373 55.5 123.829 55.5C124.285 55.5 124.251 58.538 123.753 62.25C123.255 65.963 123.049 70.35 123.295 72C123.541 73.65 123.309 76.125 122.779 77.5C122.25 78.875 121.606 81.111 121.349 82.469C121.092 83.827 120.434 85.477 119.887 86.136C119.34 86.795 118.998 88.834 119.126 90.667C119.68 98.575 119.17 100.245 115.851 101.402C114.071 102.023 105.735 102.5 96.684 102.5C87.875 102.5 80.976 102.81 81.355 103.188C82.206 104.039 119.899 103.935 120.754 103.079C121.094 102.74 121.481 99.208 121.613 95.231C121.746 91.254 121.921 88 122.002 88C122.083 88 122.348 86.919 122.591 85.598C122.835 84.277 123.684 82.702 124.479 82.098C125.611 81.238 125.987 77.528 126.212 65L126.5 49L130 48.382L133.5 47.763L129.309 47.632C127.004 47.559 124.84 47.95 124.5 48.5ZM134.813 48.183C135.534 48.472 136.397 48.436 136.729 48.104C137.061 47.772 136.471 47.536 135.417 47.579C134.252 47.627 134.015 47.864 134.813 48.183ZM1225.08 53.038C1223.75 53.761 1222.24 55.115 1221.71 56.045C1220.66 57.926 1219.96 72.438 1220.84 73.982C1222.47 76.822 1221.57 78.489 1218.08 79.068C1212.25 80.038 1212.19 80.338 1217.83 80.421L1223.17 80.5L1222.45 69.455C1221.76 58.808 1221.82 58.32 1224.04 55.955C1226.03 53.835 1227.25 53.498 1232.92 53.485C1236.96 53.475 1238.98 53.139 1238.15 52.613C1236.07 51.296 1227.79 51.565 1225.08 53.038ZM159.015 55.25C159.006 57.156 159.517 58.528 160.25 58.568C168.112 58.998 175.218 58.983 175.941 58.536C176.434 58.232 173.874 57.881 170.252 57.756C163.116 57.51 159.712 56.774 160.419 55.63C160.666 55.231 160.455 54.251 159.949 53.452C159.281 52.395 159.026 52.884 159.015 55.25ZM1239.68 53.897C1239.33 54.803 1240.01 55.46 1241.61 55.765C1243.96 56.214 1243.99 56.149 1242.38 54.368C1240.36 52.132 1240.35 52.131 1239.68 53.897ZM423.041 55.923C421.548 58.714 420.459 58.903 408.007 58.538C404.436 58.433 401.773 58.607 402.09 58.924C402.999 59.832 422.905 60.179 424.272 59.311C424.947 58.882 425.05 58.517 424.5 58.5C423.929 58.483 423.977 58.154 424.614 57.735C425.226 57.331 425.433 56.178 425.074 55.173C424.491 53.544 424.271 53.625 423.041 55.923ZM1111.37 63.5C1111.37 69.275 1111.54 71.638 1111.74 68.75C1111.94 65.862 1111.94 61.138 1111.74 58.25C1111.54 55.362 1111.37 57.725 1111.37 63.5ZM360.343 58.75C360.089 59.163 367.671 59.415 377.191 59.311C394.701 59.12 392.883 58.741 372.152 58.262C365.91 58.118 360.596 58.337 360.343 58.75ZM396.25 59.189C397.212 59.441 398.788 59.441 399.75 59.189C400.712 58.938 399.925 58.732 398 58.732C396.075 58.732 395.288 58.938 396.25 59.189ZM480.784 67.749C481.197 81.198 481.315 81.521 485.769 81.394L489.5 81.287L486.726 80.192C483.373 78.869 482.279 75.461 482.407 66.75C482.458 63.312 482.136 60.5 481.691 60.5C481.246 60.5 481.16 60.05 481.5 59.5C481.84 58.95 481.754 58.5 481.309 58.499C480.864 58.499 480.628 62.662 480.784 67.749ZM874.75 59.206C875.987 59.444 878.013 59.444 879.25 59.206C880.487 58.967 879.475 58.772 877 58.772C874.525 58.772 873.513 58.967 874.75 59.206ZM1243.02 60.25C1243 62.038 1243.57 62.503 1245.75 62.515C1250.57 62.542 1251.28 63.715 1251.79 72.408C1252.34 81.894 1254.05 83.384 1253.9 74.25C1253.75 64.995 1253.06 63.395 1248.53 61.825C1246.36 61.077 1244.24 59.91 1243.81 59.232C1243.3 58.427 1243.03 58.78 1243.02 60.25ZM357.171 61.75C356.388 63.258 356.085 69.356 356.252 80.251C356.388 89.188 356.114 96.501 355.643 96.501C355.172 96.5 355.032 97.142 355.334 97.927C355.635 98.712 355.12 99.949 354.191 100.677C352.639 101.891 352.622 101.836 353.983 100C355.437 98.038 355.425 98.035 353.321 99.825C351.41 101.451 351.123 101.476 350.69 100.056C350.309 98.807 350.238 98.845 350.36 100.23C350.474 101.517 351.538 102.085 354.258 102.31C356.316 102.481 358.025 102.256 358.055 101.81C358.445 96.009 359.037 59.5 358.74 59.5C358.519 59.5 357.813 60.513 357.171 61.75ZM828.079 61.083C828.127 62.248 828.364 62.485 828.683 61.688C828.972 60.966 828.936 60.103 828.604 59.771C828.272 59.439 828.036 60.029 828.079 61.083ZM897.692 61.757L894.884 64.004L894.527 80.002C894.33 88.801 894.131 96.386 894.084 96.857C894.038 97.328 893.212 97.44 892.25 97.105C890.809 96.603 890.846 96.763 892.46 98.011C895.887 100.663 896.511 99.3 896.286 89.658C896.107 82.006 896.324 80.5 897.604 80.5C898.885 80.5 899.094 79.032 898.877 71.524C898.735 66.588 898.847 62.319 899.127 62.039C899.408 61.759 901.763 61.449 904.362 61.351C907.267 61.241 908.589 60.856 907.794 60.352C905.383 58.822 900.513 59.5 897.692 61.757ZM881 61.5C881 62.05 881.45 62.5 882 62.5C882.55 62.5 883 62.05 883 61.5C883 60.95 882.55 60.5 882 60.5C881.45 60.5 881 60.95 881 61.5ZM1131.08 62.083C1131.13 63.248 1131.36 63.485 1131.68 62.688C1131.97 61.966 1131.94 61.103 1131.6 60.771C1131.27 60.439 1131.04 61.029 1131.08 62.083ZM870.079 65.083C870.127 66.248 870.364 66.485 870.683 65.688C870.972 64.966 870.936 64.103 870.604 63.771C870.272 63.439 870.036 64.029 870.079 65.083ZM881 71.833C881 78.11 881.283 79.5 882.559 79.5C883.416 79.5 883.83 79.034 883.479 78.465C883.127 77.896 882.664 74.685 882.449 71.328C881.887 62.54 881 62.85 881 71.833ZM828.32 71.5C828.32 75.075 828.502 76.537 828.723 74.75C828.945 72.963 828.945 70.037 828.723 68.25C828.502 66.463 828.32 67.925 828.32 71.5ZM1274.33 67.918C1274.7 68.878 1275 70.302 1275 71.082C1275 71.862 1275.39 72.5 1275.86 72.5C1277.02 72.5 1276.04 67.64 1274.71 66.821C1274.05 66.412 1273.91 66.819 1274.33 67.918ZM806.75 69.223C808.538 69.445 811.462 69.445 813.25 69.223C815.038 69.002 813.575 68.82 810 68.82C806.425 68.82 804.962 69.002 806.75 69.223ZM864.029 69.461C863.22 69.973 862.818 70.652 863.136 70.97C863.455 71.288 864.284 70.862 864.98 70.024C866.423 68.286 866.146 68.122 864.029 69.461ZM600.75 70.162C601.438 70.44 602.563 70.44 603.25 70.162C603.938 69.885 603.375 69.658 602 69.658C600.625 69.658 600.063 69.885 600.75 70.162ZM801 71C801 71.825 801.177 72.5 801.393 72.5C801.609 72.5 802.045 71.825 802.362 71C802.678 70.175 802.501 69.5 801.969 69.5C801.436 69.5 801 70.175 801 71ZM510.272 75.5C510.272 77.975 510.467 78.987 510.706 77.75C510.944 76.513 510.944 74.487 510.706 73.25C510.467 72.013 510.272 73.025 510.272 75.5ZM338.269 73.193C339.242 73.447 340.592 73.43 341.269 73.156C341.946 72.882 341.15 72.675 339.5 72.695C337.85 72.715 337.296 72.939 338.269 73.193ZM639 74.252L635.5 76L635.765 84.5C636.193 98.265 637.43 99.381 637.995 86.514L638.5 75.027L644.327 74.769C650.375 74.501 653 75.76 653 78.929C653 79.793 653.427 80.5 653.948 80.5C654.529 80.5 654.501 79.366 653.875 77.573C652.178 72.703 645.213 71.148 639 74.252ZM801.116 75.687C801.019 77.937 800.473 78.439 797.75 78.777L794.5 79.18L797.781 79.34C801.252 79.509 802.534 78.026 801.701 74.808C801.387 73.598 801.194 73.888 801.116 75.687ZM1283.16 75.5C1283.16 76.875 1283.38 77.438 1283.66 76.75C1283.94 76.063 1283.94 74.938 1283.66 74.25C1283.38 73.563 1283.16 74.125 1283.16 75.5ZM715.875 74.833C715.806 75.2 715.687 75.838 715.61 76.25C715.533 76.662 715.112 77.563 714.676 78.25C714.235 78.943 714.324 79.5 714.874 79.5C716.043 79.5 717.45 75.616 716.591 74.758C716.266 74.433 715.944 74.467 715.875 74.833ZM607.232 78.5C607.232 80.425 607.438 81.213 607.689 80.25C607.941 79.287 607.941 77.713 607.689 76.75C607.438 75.787 607.232 76.575 607.232 78.5ZM1110 76.44C1110 76.956 1108.31 77.556 1106.25 77.772L1102.5 78.164L1106.75 78.332C1109.94 78.458 1111 78.124 1111 77C1111 76.175 1110.78 75.5 1110.5 75.5C1110.22 75.5 1110 75.923 1110 76.44ZM1131 77C1131 77.825 1131.44 78.5 1131.97 78.5C1132.5 78.5 1132.68 77.825 1132.36 77C1132.05 76.175 1131.61 75.5 1131.39 75.5C1131.18 75.5 1131 76.175 1131 77ZM596.813 78.183C597.534 78.472 598.397 78.436 598.729 78.104C599.061 77.772 598.471 77.536 597.417 77.579C596.252 77.627 596.015 77.864 596.813 78.183ZM1135.75 78.162C1136.44 78.44 1137.56 78.44 1138.25 78.162C1138.94 77.885 1138.38 77.658 1137 77.658C1135.62 77.658 1135.06 77.885 1135.75 78.162ZM1148.75 78.237C1151.64 78.439 1156.36 78.439 1159.25 78.237C1162.14 78.035 1159.78 77.87 1154 77.87C1148.22 77.87 1145.86 78.035 1148.75 78.237ZM343.079 80.083C343.127 81.248 343.364 81.485 343.683 80.688C343.972 79.966 343.936 79.103 343.604 78.771C343.272 78.439 343.036 79.029 343.079 80.083ZM629.71 80.5C629.998 81.6 630.406 82.5 630.617 82.5C630.827 82.5 631 81.6 631 80.5C631 79.4 630.592 78.5 630.094 78.5C629.595 78.5 629.423 79.4 629.71 80.5ZM856.372 79.265C855.122 80.079 854.023 88.5 855.166 88.5C855.561 88.5 856.023 86.59 856.193 84.255C856.469 80.443 856.806 79.945 859.5 79.373C862.195 78.801 862.246 78.726 860 78.634C858.625 78.577 856.992 78.861 856.372 79.265ZM888.474 79.412C890.076 80.038 890.391 80.966 890.147 84.342C889.968 86.83 890.279 88.5 890.924 88.5C892.394 88.5 892.291 81.191 890.8 79.7C890.14 79.04 888.903 78.532 888.05 78.57C886.963 78.62 887.09 78.871 888.474 79.412ZM1283.02 79.75C1283 81.378 1284.8 81.484 1308.75 81.268L1334.5 81.037L1309.55 80.75C1291.13 80.539 1284.39 80.141 1283.81 79.232C1283.26 78.368 1283.03 78.522 1283.02 79.75ZM492.5 80.541C489.869 81.174 490.115 81.292 494.5 81.5C497.25 81.63 499.795 81.698 500.156 81.65C501.035 81.533 502.903 92.59 502.279 94.217C502.008 94.922 502.27 95.5 502.863 95.5C503.455 95.5 503.883 93.996 503.813 92.157C503.744 90.319 504.053 88.224 504.498 87.503C505.068 86.581 504.922 86.43 504.009 86.995C503.021 87.605 502.861 87.19 503.344 85.264C504.412 81.009 499.477 78.86 492.5 80.541ZM710.459 80.567C710.096 81.153 710.014 81.848 710.276 82.11C710.538 82.372 711.019 81.892 711.345 81.043C712.021 79.281 711.445 78.971 710.459 80.567ZM793.079 81.083C793.127 82.248 793.364 82.485 793.683 81.688C793.972 80.966 793.936 80.103 793.604 79.771C793.272 79.439 793.036 80.029 793.079 81.083ZM1171.29 80.242C1175.03 80.435 1180.88 80.434 1184.29 80.239C1187.71 80.045 1184.65 79.887 1177.5 79.889C1170.35 79.89 1167.56 80.05 1171.29 80.242ZM1191.16 79.989C1191.88 80.711 1208.01 80.821 1208.72 80.109C1209.06 79.774 1205.13 79.5 1200 79.5C1194.87 79.5 1190.89 79.72 1191.16 79.989ZM1335 80.778C1335.92 81.598 1360 82.493 1360 81.707C1360 81.28 1354.26 80.796 1347.25 80.632C1340.24 80.468 1334.72 80.533 1335 80.778ZM654 83.465C654 85.522 657.24 87.926 658.421 86.745C658.798 86.369 658.809 86.835 658.446 87.78C658.067 88.768 658.257 89.5 658.893 89.5C660.706 89.5 660.099 87.184 657.516 84.25C654.642 80.984 654 80.841 654 83.465ZM343 85C343 86.375 343.388 87.5 343.861 87.5C344.335 87.5 344.508 86.375 344.245 85C343.982 83.625 343.594 82.5 343.383 82.5C343.173 82.5 343 83.625 343 85ZM607.32 88.5C607.32 92.075 607.502 93.537 607.723 91.75C607.945 89.963 607.945 87.037 607.723 85.25C607.502 83.463 607.32 84.925 607.32 88.5ZM284.158 85.5C284.158 86.875 284.385 87.438 284.662 86.75C284.94 86.063 284.94 84.938 284.662 84.25C284.385 83.563 284.158 84.125 284.158 85.5ZM793.079 85.083C793.127 86.248 793.364 86.485 793.683 85.688C793.972 84.966 793.936 84.103 793.604 83.771C793.272 83.439 793.036 84.029 793.079 85.083ZM991 90.443C991 95.451 990.65 96.632 988.777 97.943L986.555 99.5H989.277C991.999 99.5 992 99.497 992 92C992 87.875 991.775 84.5 991.5 84.5C991.225 84.5 991 87.174 991 90.443ZM827 87C827 87.825 827.436 88.5 827.969 88.5C828.501 88.5 828.678 87.825 828.362 87C828.045 86.175 827.609 85.5 827.393 85.5C827.177 85.5 827 86.175 827 87ZM698 88.5L686.5 89.101L698.25 89.301C705.55 89.424 710 89.121 710 88.5C710 87.95 709.888 87.59 709.75 87.699C709.612 87.809 704.325 88.169 698 88.5ZM848.028 88.966C847.359 89.773 847.043 91.01 847.327 91.716C847.659 92.543 847.87 92.395 847.921 91.3C847.964 90.365 848.788 89.141 849.75 88.58C850.712 88.019 850.993 87.547 850.372 87.53C849.752 87.514 848.697 88.16 848.028 88.966ZM550.32 94.5C550.32 98.075 550.502 99.537 550.723 97.75C550.945 95.963 550.945 93.037 550.723 91.25C550.502 89.463 550.32 90.925 550.32 94.5ZM349 91.941C349 93.284 349.45 94.66 350 95C350.583 95.361 351 94.344 351 92.559C351 90.877 350.55 89.5 350 89.5C349.45 89.5 349 90.598 349 91.941ZM847 95.059C847 95.916 846.55 96.34 846 96C845.45 95.66 845 96.084 845 96.941C845 97.798 845.675 98.5 846.5 98.5C847.433 98.5 848 97.556 848 96C848 94.625 847.775 93.5 847.5 93.5C847.225 93.5 847 94.202 847 95.059ZM843.158 96.5C843.158 97.875 843.385 98.438 843.662 97.75C843.94 97.063 843.94 95.938 843.662 95.25C843.385 94.563 843.158 95.125 843.158 96.5ZM557.25 102.243C561.513 102.431 568.487 102.431 572.75 102.243C577.013 102.056 573.525 101.902 565 101.902C556.475 101.902 552.987 102.056 557.25 102.243ZM585.75 102.206C586.987 102.444 589.013 102.444 590.25 102.206C591.487 101.967 590.475 101.772 588 101.772C585.525 101.772 584.513 101.967 585.75 102.206ZM0.293024 103.755C0.544024 104.44 1.36902 104.848 2.12502 104.662C2.88102 104.476 9.47202 104.299 16.772 104.267C24.072 104.236 29.792 103.959 29.485 103.651C29.177 103.344 22.38 102.961 14.381 102.801C3.10002 102.575 -0.0609761 102.789 0.293024 103.755ZM31.543 103.376C32.412 104.245 46 104.163 46 103.289C46 102.897 42.607 102.617 38.46 102.665C34.313 102.713 31.2 103.034 31.543 103.376ZM47.74 103.318C49.244 104.273 75.682 104.151 76.649 103.185C77.025 102.808 70.396 102.507 61.917 102.515C53.437 102.524 47.058 102.885 47.74 103.318Z" fill="#33603B"/>
<path fill-rule="evenodd" clip-rule="evenodd" d="M421.772 25C422.05 38.75 422.44 50.188 422.639 50.417C423.336 51.221 422.794 10.94 422.034 5.5C421.612 2.475 421.494 11.25 421.772 25ZM462.841 5C462.2 9.86 462.413 11.421 463.559 10.274C463.867 9.967 463.979 7.529 463.809 4.857L463.5 0L462.841 5ZM222.25 12.75C222.387 13.438 222.95 14.321 223.5 14.714C224.05 15.106 224.523 19.775 224.551 25.088L224.602 34.75L231.821 34.961C237.602 35.13 239.328 35.553 240.488 37.086C241.734 38.732 241.941 38.769 241.968 37.348C242.003 35.53 237.311 33.5 233.073 33.5C231.628 33.5 229.392 32.763 228.105 31.861C225.874 30.298 225.798 29.855 226.459 22.277C227.071 15.266 226.937 14.169 225.326 12.948C223.032 11.209 221.928 11.138 222.25 12.75ZM463.717 27.804C463.836 36.712 464.23 46.602 464.593 49.783C465.45 57.293 466.151 57.683 480.272 58.516C481.246 58.574 481.782 59.044 481.463 59.561C481.143 60.077 481.246 60.5 481.691 60.5C482.136 60.5 482.458 63.312 482.407 66.75C482.278 75.499 483.355 78.825 486.719 80.057C488.248 80.617 490.85 80.774 492.5 80.406C495.329 79.775 495.272 79.729 491.5 79.603C485.36 79.398 484.939 78.782 484.746 69.708C484.518 59.02 483.531 57.721 475 56.872C471.425 56.516 468.007 55.839 467.403 55.368C466.714 54.828 466.045 46.805 465.601 33.755C465.213 22.34 464.581 12.687 464.198 12.304C463.814 11.921 463.598 18.896 463.717 27.804ZM202.667 14.167C202.3 14.533 202 18.208 202 22.333C202 26.458 202.263 29.571 202.584 29.249C203.085 28.749 203.975 13.5 203.504 13.5C203.41 13.5 203.033 13.8 202.667 14.167ZM916.352 20.493C915.171 20.97 913.884 21.879 913.491 22.514C913.099 23.149 912.69 31.393 912.583 40.834C912.476 50.275 912.546 54.948 912.738 51.218C912.931 47.489 913.406 44.634 913.794 44.875C914.183 45.116 914.35 40.491 914.167 34.598C913.769 21.819 914.009 21.468 923.813 20.467L930.5 19.784L924.5 19.705C921.2 19.662 917.534 20.017 916.352 20.493ZM933.5 21.5C936.249 22.681 937.828 22.681 936 21.5C935.175 20.967 933.825 20.555 933 20.586C932.011 20.622 932.181 20.933 933.5 21.5ZM1020 22.487C1018.98 23.138 1019.78 23.248 1022.5 22.83C1027.44 22.072 1028.28 21.495 1024.42 21.515C1022.81 21.524 1020.82 21.961 1020 22.487ZM1032.27 22.193C1033.24 22.447 1034.59 22.43 1035.27 22.156C1035.95 21.882 1035.15 21.675 1033.5 21.695C1031.85 21.715 1031.3 21.939 1032.27 22.193ZM146.224 34.057C146.53 34.364 148.731 34.701 151.114 34.807C155.272 34.992 155.517 35.182 157.169 39.5C158.22 42.247 158.912 43.183 158.946 41.904C158.976 40.751 158.292 38.388 157.427 36.654C155.97 33.734 155.475 33.5 150.76 33.5C147.959 33.5 145.917 33.751 146.224 34.057ZM936.71 37.5C937 38.607 938.074 39.5 939.117 39.5C940.922 39.5 940.917 39.417 939 37.5C937.9 36.4 936.817 35.5 936.594 35.5C936.37 35.5 936.423 36.4 936.71 37.5ZM202.079 41.083C202.127 42.248 202.364 42.485 202.683 41.688C202.972 40.966 202.936 40.103 202.604 39.771C202.272 39.439 202.036 40.029 202.079 41.083ZM942.75 40.162C943.438 40.44 944.563 40.44 945.25 40.162C945.938 39.885 945.375 39.658 944 39.658C942.625 39.658 942.063 39.885 942.75 40.162ZM949.211 41.895C949.92 42.662 950.837 43.086 951.25 42.836C951.663 42.586 952 42.859 952 43.441C952 44.023 952.45 44.5 953 44.5C954.906 44.5 953.988 42.816 951.453 41.661C948.128 40.146 947.641 40.197 949.211 41.895ZM1050.75 41.223C1052.54 41.445 1055.46 41.445 1057.25 41.223C1059.04 41.002 1057.58 40.82 1054 40.82C1050.43 40.82 1048.96 41.002 1050.75 41.223ZM1066.81 41.183C1067.53 41.472 1068.4 41.436 1068.73 41.104C1069.06 40.772 1068.47 40.536 1067.42 40.579C1066.25 40.627 1066.02 40.864 1066.81 41.183ZM1071.5 42.5C1071.84 43.05 1072.57 43.5 1073.12 43.5C1073.67 43.5 1073.84 43.05 1073.5 42.5C1073.16 41.95 1072.43 41.5 1071.88 41.5C1071.33 41.5 1071.16 41.95 1071.5 42.5ZM202.079 45.083C202.127 46.248 202.364 46.485 202.683 45.688C202.972 44.966 202.936 44.103 202.604 43.771C202.272 43.439 202.036 44.029 202.079 45.083ZM138 45.445C138 45.965 135.863 46.559 133.25 46.765L128.5 47.14L133.128 47.32C136.201 47.439 138.173 46.996 139 46C139.86 44.964 139.898 44.5 139.122 44.5C138.505 44.5 138 44.925 138 45.445ZM1073 47C1072.19 51.865 1073.32 58.797 1075 59.248C1076.06 59.533 1076.15 59.4 1075.3 58.798C1074.62 58.315 1073.97 54.92 1073.8 50.972C1073.62 46.732 1073.3 45.175 1073 47ZM950.667 46.167C950.3 46.533 950 49.611 950 53.006C950 58.464 950.261 59.287 952.25 60.114C953.487 60.628 956.525 60.767 959 60.424L963.5 59.8L957.75 59.65C953.947 59.551 951.972 59.077 951.918 58.25C951.873 57.563 951.905 54.413 951.989 51.25C952.14 45.558 951.961 44.872 950.667 46.167ZM123 48.941C123 49.734 123.354 50.6 123.786 50.868C124.218 51.135 124.571 50.486 124.571 49.427C124.571 48.367 124.218 47.5 123.786 47.5C123.354 47.5 123 48.148 123 48.941ZM159.546 50.5C159.814 52.425 160.101 54.573 160.183 55.273C160.375 56.895 162.654 57.4 172.251 57.944C176.514 58.186 180.564 58.701 181.251 59.088C182.24 59.647 182.244 59.518 181.272 58.469C180.512 57.649 176.786 56.973 171.503 56.695C162.506 56.223 162.221 56.066 160.279 50.5L159.058 47L159.546 50.5ZM200.667 49.167C200.3 49.533 200 56.283 200 64.167C200 76.241 199.764 78.5 198.5 78.5C197.675 78.5 197 78.936 197 79.469C197 80.577 200.006 79.633 201.5 78.056C202.821 76.661 202.993 71.5 201.719 71.5C201.084 71.5 200.905 67.32 201.229 60C201.508 53.675 201.645 48.5 201.535 48.5C201.424 48.5 201.033 48.8 200.667 49.167ZM1111.2 51C1111.22 52.65 1111.44 53.204 1111.69 52.231C1111.95 51.258 1111.93 49.908 1111.66 49.231C1111.38 48.554 1111.18 49.35 1111.2 51ZM1132.34 56C1132.35 60.4 1132.52 62.076 1132.73 59.724C1132.95 57.372 1132.94 53.772 1132.73 51.724C1132.51 49.676 1132.34 51.6 1132.34 56ZM1224.5 51.886C1219.08 54.247 1217.96 58.377 1219.03 72L1219.5 78L1215 78.313C1212.53 78.485 1210.05 79.102 1209.5 79.684C1208.54 80.699 1211.09 80.497 1219.08 78.924C1221.55 78.437 1222.26 76.452 1220.84 73.982C1220.09 72.671 1220.63 58.465 1221.51 56.256C1221.9 55.296 1222.73 54.806 1223.36 55.166C1223.99 55.526 1224.17 55.455 1223.77 55.009C1221.51 52.515 1234 50.503 1238.25 52.676C1239.3 53.21 1240 53.201 1240 52.652C1240 50.336 1229.27 49.806 1224.5 51.886ZM1241 52.878C1241 53.085 1241.68 53.815 1242.5 54.5C1243.73 55.52 1244 55.451 1244 54.122C1244 53.23 1243.33 52.5 1242.5 52.5C1241.68 52.5 1241 52.67 1241 52.878ZM241.874 56.5C241.147 59.719 241.41 78.244 242.193 79.027C242.521 79.355 243.064 77.008 243.4 73.811C244.093 67.212 242.791 52.436 241.874 56.5ZM421.232 56.5C420.545 57.6 420.329 58.5 420.751 58.5C421.173 58.5 422.081 57.6 422.768 56.5C423.455 55.4 423.671 54.5 423.249 54.5C422.827 54.5 421.919 55.4 421.232 56.5ZM123.079 60.25C123.166 65.478 123.651 65.055 124.227 59.25C124.431 57.188 124.239 55.5 123.799 55.5C123.36 55.5 123.036 57.638 123.079 60.25ZM360.603 57.333C360.32 57.792 360.743 58.167 361.544 58.167C362.345 58.167 363 57.792 363 57.333C363 56.875 362.577 56.5 362.059 56.5C361.541 56.5 360.886 56.875 360.603 57.333ZM1019.12 65.191C1019.05 70.246 1019.37 74.613 1019.83 74.896C1020.29 75.179 1020.49 71.718 1020.27 67.205C1019.71 55.397 1019.25 54.6 1019.12 65.191ZM1243 57.429C1243 58.763 1245.93 61.505 1247.32 61.47C1247.97 61.453 1247.71 60.981 1246.75 60.42C1245.79 59.859 1245 58.748 1245 57.95C1245 57.153 1244.55 56.5 1244 56.5C1243.45 56.5 1243 56.918 1243 57.429ZM372.199 58.244C376.984 58.427 385.084 58.428 390.199 58.246C395.315 58.064 391.4 57.914 381.5 57.913C371.6 57.912 367.415 58.061 372.199 58.244ZM409.245 58.078C410.229 59.062 415.019 59.279 415.583 58.365C415.877 57.889 414.441 57.5 412.392 57.5C410.343 57.5 408.927 57.76 409.245 58.078ZM898.042 60.112C893.297 63.363 893.032 64.036 893.015 72.905C893 80.668 892.965 80.778 891.058 79.052C889.99 78.086 888.527 77.53 887.808 77.818C886.906 78.18 887.005 78.367 888.128 78.421C891.144 78.567 892.087 81.172 892.105 89.405C892.115 93.857 892.537 97.5 893.042 97.5C894.618 97.5 895.136 93.195 894.248 87.482C893.779 84.467 893.711 80.875 894.098 79.5C894.484 78.125 894.845 73.993 894.9 70.318C894.991 64.216 895.24 63.465 897.763 61.669C899.283 60.587 901.645 59.534 903.013 59.33C905.276 58.992 905.316 58.907 903.46 58.378C902.195 58.018 900.136 58.677 898.042 60.112ZM356.872 60.149C355.891 61.329 355.301 66.808 354.801 79.399C353.975 100.17 353.945 100.416 352.286 99.779C351.579 99.508 351 99.744 351 100.305C351 100.865 351.563 101.238 352.25 101.133C354.601 100.777 355.913 99.437 355.349 97.968C355.04 97.161 355.172 96.5 355.643 96.501C356.114 96.501 356.399 89.042 356.276 79.925C356.091 66.197 356.325 62.933 357.641 60.925C359.446 58.171 358.942 57.662 356.872 60.149ZM822.25 59.189C823.212 59.441 824.788 59.441 825.75 59.189C826.712 58.938 825.925 58.732 824 58.732C822.075 58.732 821.288 58.938 822.25 59.189ZM881 58.878C881 59.085 881.788 59.873 882.75 60.628C884.336 61.871 884.371 61.836 883.128 60.25C881.821 58.584 881 58.055 881 58.878ZM1079.25 60.189C1080.21 60.441 1081.79 60.441 1082.75 60.189C1083.71 59.938 1082.93 59.732 1081 59.732C1079.08 59.732 1078.29 59.938 1079.25 60.189ZM964.417 61.25C964.829 61.663 965.692 62.003 966.333 62.007C967.12 62.011 967.5 64.507 967.5 69.669C967.5 73.879 967.837 77.664 968.25 78.079C968.663 78.494 969 74.981 969 70.274C969 63.391 968.69 61.595 967.418 61.107C965.225 60.265 963.514 60.347 964.417 61.25ZM1087 60.883C1087 61.094 1087.9 61.502 1089 61.79C1090.1 62.078 1090.75 61.905 1090.44 61.407C1089.9 60.536 1087 60.094 1087 60.883ZM1110.34 68.5C1110.34 72.625 1110.51 74.313 1110.73 72.25C1110.94 70.188 1110.94 66.813 1110.73 64.75C1110.51 62.688 1110.34 64.375 1110.34 68.5ZM1250.68 62.505C1252.85 63.38 1253.31 64.996 1254.34 75.5C1254.53 77.425 1254.75 75.77 1254.84 71.821C1255.01 64.28 1253.71 61.43 1250.18 61.563C1248.94 61.61 1249.07 61.858 1250.68 62.505ZM182.1 65.25C182.155 66.763 182.56 69.125 183 70.5C183.63 72.467 183.822 71.881 183.9 67.75C183.955 64.85 183.552 62.5 183 62.5C182.45 62.5 182.045 63.737 182.1 65.25ZM882.36 69.741C882.437 73.999 882.837 77.487 883.25 77.491C884.17 77.502 884.086 73.627 883.022 67C882.282 62.392 882.23 62.606 882.36 69.741ZM1088.77 65.067C1088.45 65.38 1088.62 67.17 1089.14 69.046C1089.66 70.923 1089.95 73.658 1089.79 75.124C1089.63 76.59 1089.95 77.951 1090.5 78.148C1091.13 78.371 1091.38 75.88 1091.17 71.503C1090.86 65.079 1090.29 63.543 1088.77 65.067ZM1267.59 65.356C1267.3 65.826 1268.17 65.999 1269.53 65.739C1270.89 65.479 1272 65.094 1272 64.883C1272 64.11 1268.1 64.527 1267.59 65.356ZM510.232 68.5C510.232 70.425 510.438 71.213 510.689 70.25C510.941 69.287 510.941 67.713 510.689 66.75C510.438 65.787 510.232 66.575 510.232 68.5ZM526.252 69C526.263 71.2 526.468 71.982 526.707 70.738C526.946 69.494 526.937 67.694 526.687 66.738C526.437 65.782 526.241 66.8 526.252 69ZM598.459 70.567C598.096 71.153 598.014 71.848 598.276 72.11C598.538 72.372 599.019 71.892 599.345 71.043C600.021 69.281 599.445 68.971 598.459 70.567ZM607.195 73C607.215 74.65 607.439 75.204 607.693 74.231C607.947 73.258 607.93 71.908 607.656 71.231C607.382 70.554 607.175 71.35 607.195 73ZM121.477 75.802C121.088 78.4 120.371 80.771 119.885 81.071C119.398 81.372 119 82.806 119 84.259C119 87.432 120.658 86.191 121.348 82.5C121.606 81.125 122.31 78.727 122.913 77.171C123.599 75.403 123.668 73.73 123.098 72.711C122.406 71.474 122.014 72.221 121.477 75.802ZM862.951 75.224C862.677 77.547 862.833 79.067 863.299 78.601C863.765 78.135 863.989 76.235 863.798 74.377C863.459 71.083 863.438 71.104 862.951 75.224ZM1283.56 75.456C1283.73 77.789 1284.02 79.849 1284.2 80.033C1284.63 80.464 1362 80.771 1364 80.35C1364.83 80.176 1347.28 79.801 1325 79.517L1284.5 79L1284.81 76.768C1284.98 75.54 1284.7 73.789 1284.19 72.875C1283.53 71.692 1283.35 72.436 1283.56 75.456ZM299.75 73.162C300.438 73.44 301.563 73.44 302.25 73.162C302.938 72.885 302.375 72.658 301 72.658C299.625 72.658 299.063 72.885 299.75 73.162ZM637.314 74.25C636.264 75.213 635.901 75.681 636.507 75.29C637.112 74.9 638.708 74.141 640.054 73.604C641.6 72.986 641.897 72.603 640.861 72.563C639.959 72.529 638.363 73.287 637.314 74.25ZM650.172 73.636C651.756 74.216 653.262 75.813 653.87 77.557C654.434 79.176 654.676 80.5 654.408 80.5C654.139 80.5 655.038 81.707 656.406 83.182C657.774 84.657 658.623 86.302 658.292 86.837C657.96 87.374 658.207 87.49 658.845 87.095C659.53 86.673 660 87.017 660 87.941C660 89.288 661.87 89.47 673.75 89.282L687.5 89.063L674.25 88.753C666.962 88.582 661 88.075 661 87.627C661 87.178 659.876 85.504 658.501 83.906C657.127 82.307 656.002 80.474 656.001 79.831C656.001 79.188 655.212 77.278 654.25 75.587C652.999 73.39 651.786 72.533 650 72.585L647.5 72.658L650.172 73.636ZM1265.08 74.083C1265.13 75.248 1265.36 75.485 1265.68 74.688C1265.97 73.966 1265.94 73.103 1265.6 72.771C1265.27 72.439 1265.04 73.029 1265.08 74.083ZM720.5 74.235C722.7 74.454 724.821 74.947 725.213 75.329C725.604 75.712 726.009 78.832 726.112 82.263C726.263 87.274 726.614 88.484 727.9 88.421C728.78 88.378 729.047 88.152 728.493 87.919C727.939 87.686 727.648 85.463 727.845 82.978C728.375 76.314 726.187 73.451 720.727 73.668L716.5 73.836L720.5 74.235ZM713.741 77.076C713.392 78.899 713.56 79.34 714.314 78.586C715.627 77.273 716.112 74.5 715.028 74.5C714.591 74.5 714.012 75.659 713.741 77.076ZM1132 76.402C1132 77.44 1133.9 78.943 1134.47 78.35C1134.65 78.158 1134.17 77.42 1133.4 76.711C1132.63 76.001 1132 75.862 1132 76.402ZM1106.75 77.162C1107.44 77.44 1108.56 77.44 1109.25 77.162C1109.94 76.885 1109.38 76.658 1108 76.658C1106.63 76.658 1106.06 76.885 1106.75 77.162ZM1258.75 77.162C1259.44 77.44 1260.56 77.44 1261.25 77.162C1261.94 76.885 1261.38 76.658 1260 76.658C1258.63 76.658 1258.06 76.885 1258.75 77.162ZM184.734 78.572C185.413 79.285 186.892 79.937 188.02 80.02C190.58 80.208 189.34 78.968 186 78C183.971 77.412 183.733 77.52 184.734 78.572ZM304.343 85C304.346 89.4 304.522 91.076 304.733 88.724C304.945 86.372 304.942 82.772 304.727 80.724C304.512 78.676 304.339 80.6 304.343 85ZM623.98 79.024C622.142 81.239 623.188 81.494 625.25 79.333C626.212 78.325 626.605 77.5 626.122 77.5C625.64 77.5 624.676 78.186 623.98 79.024ZM828.286 82C828.294 84.75 828.488 85.756 828.718 84.236C828.947 82.716 828.941 80.466 828.704 79.236C828.467 78.006 828.279 79.25 828.286 82ZM1005.9 78.444C996.538 78.827 991.783 79.428 990.649 80.372C989.373 81.435 989 83.526 989 89.622C989 94.958 988.623 97.5 987.833 97.5C987.192 97.5 986.956 97.789 987.309 98.143C987.663 98.496 988.638 98.216 989.476 97.52C990.602 96.585 991 94.227 991 88.485C991 82.687 991.361 80.575 992.423 80.168C993.206 79.868 1000.18 79.529 1007.92 79.416C1015.66 79.302 1022 78.825 1022 78.355C1022 77.885 1021.44 77.588 1020.75 77.694C1020.06 77.801 1013.38 78.139 1005.9 78.444ZM1101 78.559C1101 79.141 1101.45 79.34 1102 79C1102.55 78.66 1103 78.184 1103 77.941C1103 77.698 1102.55 77.5 1102 77.5C1101.45 77.5 1101 77.977 1101 78.559ZM1139.81 78.183C1140.53 78.472 1141.4 78.436 1141.73 78.104C1142.06 77.772 1141.47 77.536 1140.42 77.579C1139.25 77.627 1139.02 77.864 1139.81 78.183ZM1164.88 78.788C1165.32 79.222 1170.14 79.444 1175.59 79.282L1185.5 78.988L1174.8 78.494C1168.91 78.222 1164.45 78.355 1164.88 78.788ZM497 79.5C497 80.05 497.45 80.5 498 80.5C498.55 80.5 499 80.05 499 79.5C499 78.95 498.55 78.5 498 78.5C497.45 78.5 497 78.95 497 79.5ZM792.667 79.167C792.3 79.533 792 81.558 792 83.667C792 85.921 791.519 87.5 790.833 87.5C790.192 87.5 789.902 87.736 790.19 88.024C790.478 88.311 791.37 88.295 792.172 87.988C793.164 87.607 793.538 86.255 793.341 83.757C793.175 81.655 793.575 79.754 794.276 79.308C795.023 78.834 795.078 78.525 794.417 78.515C793.821 78.507 793.033 78.8 792.667 79.167ZM981 80C981.685 80.825 982.695 81.5 983.245 81.5C983.803 81.5 983.694 80.837 983 80C982.315 79.175 981.305 78.5 980.755 78.5C980.197 78.5 980.306 79.163 981 80ZM1093.75 79.162C1094.44 79.44 1095.56 79.44 1096.25 79.162C1096.94 78.885 1096.38 78.658 1095 78.658C1093.63 78.658 1093.06 78.885 1093.75 79.162ZM287.75 80.206C288.988 80.444 291.012 80.444 292.25 80.206C293.488 79.967 292.475 79.772 290 79.772C287.525 79.772 286.512 79.967 287.75 80.206ZM329.459 80.567C328.433 82.227 329.354 82.457 330.789 80.899C331.499 80.13 331.638 79.5 331.098 79.5C330.559 79.5 329.821 79.98 329.459 80.567ZM501.777 81.057C503.857 82.513 505.07 85.279 503.093 84.058C502.595 83.749 502.414 84.367 502.692 85.429C503.257 87.59 506 87.145 506 84.893C506 83.175 502.442 79.5 500.777 79.5C500.105 79.5 500.555 80.201 501.777 81.057ZM592 89.927C592 99.016 591.776 100.412 590.25 100.811C588.933 101.155 589.057 101.297 590.75 101.384C592.954 101.498 593 101.275 593 90.5C593 84.45 592.775 79.5 592.5 79.5C592.225 79.5 592 84.192 592 89.927ZM709.543 80.75C708.718 83.364 708.393 88.375 709.075 87.953C709.468 87.711 709.961 85.71 710.171 83.506C710.552 79.514 710.292 78.375 709.543 80.75ZM854.252 83C854.263 85.2 854.468 85.982 854.707 84.738C854.946 83.494 854.937 81.694 854.687 80.738C854.437 79.782 854.241 80.8 854.252 83ZM343.891 84.185C344.286 85.662 345.158 86.978 345.83 87.11C346.501 87.242 346.589 87.121 346.025 86.842C345.461 86.562 345 85.246 345 83.917C345 82.588 344.589 81.5 344.086 81.5C343.584 81.5 343.496 82.707 343.891 84.185ZM608.31 89C608.315 92.3 608.502 93.529 608.725 91.732C608.947 89.935 608.943 87.235 608.715 85.732C608.486 84.229 608.304 85.7 608.31 89ZM508 85.5C506.718 86.328 506.754 86.472 508.25 86.485C509.212 86.493 510 86.05 510 85.5C510 84.28 509.887 84.28 508 85.5ZM617.75 86.162C618.438 86.44 619.563 86.44 620.25 86.162C620.938 85.885 620.375 85.658 619 85.658C617.625 85.658 617.063 85.885 617.75 86.162ZM983.286 91C983.294 93.75 983.488 94.756 983.718 93.236C983.947 91.716 983.941 89.466 983.704 88.236C983.467 87.006 983.279 88.25 983.286 91ZM323.136 90.167C323.061 91.908 322.438 93.56 321.75 93.838C320.771 94.233 320.778 94.359 321.781 94.421C323.428 94.523 324.279 92.28 323.715 89.323C323.369 87.508 323.243 87.692 323.136 90.167ZM775.25 88.189C776.212 88.441 777.788 88.441 778.75 88.189C779.712 87.938 778.925 87.732 777 87.732C775.075 87.732 774.288 87.938 775.25 88.189ZM829.813 88.183C830.534 88.472 831.397 88.436 831.729 88.104C832.061 87.772 831.471 87.536 830.417 87.579C829.252 87.627 829.015 87.864 829.813 88.183ZM835.264 88.218C836.784 88.447 839.034 88.441 840.264 88.204C841.494 87.967 840.25 87.779 837.5 87.786C834.75 87.794 833.744 87.988 835.264 88.218ZM847.257 88.75C845.856 90.521 845.102 95.445 846.134 96.083C846.61 96.377 847 95.106 847 93.259C847 91.412 847.54 89.36 848.2 88.7C848.86 88.04 849.14 87.5 848.822 87.5C848.505 87.5 847.8 88.063 847.257 88.75ZM851.813 88.183C852.534 88.472 853.397 88.436 853.729 88.104C854.061 87.772 853.471 87.536 852.417 87.579C851.252 87.627 851.015 87.864 851.813 88.183ZM614.079 90.083C614.127 91.248 614.364 91.485 614.683 90.688C614.972 89.966 614.936 89.103 614.604 88.771C614.272 88.439 614.036 89.029 614.079 90.083ZM502.459 91.567C502.096 92.153 502.014 92.848 502.276 93.11C502.538 93.372 503.019 92.892 503.345 92.043C504.021 90.281 503.445 89.971 502.459 91.567ZM119.079 93.083C119.127 94.248 119.364 94.485 119.683 93.688C119.972 92.966 119.936 92.103 119.604 91.771C119.272 91.439 119.036 92.029 119.079 93.083ZM351.232 95.5C351.232 97.425 351.438 98.213 351.689 97.25C351.941 96.287 351.941 94.713 351.689 93.75C351.438 92.787 351.232 93.575 351.232 95.5ZM265.75 94.162C266.438 94.44 267.563 94.44 268.25 94.162C268.938 93.885 268.375 93.658 267 93.658C265.625 93.658 265.063 93.885 265.75 94.162ZM276.813 94.183C277.534 94.472 278.397 94.436 278.729 94.104C279.061 93.772 278.471 93.536 277.417 93.579C276.252 93.627 276.015 93.864 276.813 94.183ZM306.25 94.216C307.762 94.445 310.238 94.445 311.75 94.216C313.262 93.987 312.025 93.8 309 93.8C305.975 93.8 304.738 93.987 306.25 94.216ZM317.394 94.916C317.095 95.694 317.013 97.607 317.21 99.166C317.504 101.479 317.66 101.218 318.061 97.75C318.567 93.377 318.345 92.436 317.394 94.916ZM315.232 98.5C315.232 100.425 315.438 101.213 315.689 100.25C315.941 99.287 315.941 97.713 315.689 96.75C315.438 95.787 315.232 96.575 315.232 98.5ZM117.985 97.25C117.917 100.551 115.948 101.004 99.288 101.557L82.5 102.115L97.601 102.307C113.907 102.515 119 101.586 119 98.402C119 96.655 118.02 95.543 117.985 97.25ZM558.299 101.245C563.139 101.429 570.789 101.428 575.299 101.243C579.81 101.058 575.85 100.908 566.5 100.909C557.15 100.91 553.46 101.062 558.299 101.245ZM2.81203 102.183C3.53403 102.472 4.39703 102.436 4.72903 102.104C5.06103 101.772 4.47103 101.536 3.41703 101.579C2.25203 101.627 2.01503 101.864 2.81203 102.183ZM8.50003 102.389C12.199 103.193 47.893 102.941 48.729 102.105C49.061 101.772 39.471 101.553 27.417 101.618C15.363 101.683 6.85003 102.03 8.50003 102.389ZM59.25 102.235C61.862 102.441 66.138 102.441 68.75 102.235C71.362 102.029 69.225 101.86 64 101.86C58.775 101.86 56.638 102.029 59.25 102.235Z" fill="#33603B"/>
</svg>
